<?xml version="1.0" encoding="utf-8"?>
<!-- Generator: Adobe Illustrator 19.0.0, SVG Export Plug-In . SVG Version: 6.00 Build 0)  -->
<svg version="1.1" id="Layer_1" xmlns="http://www.w3.org/2000/svg" xmlns:xlink="http://www.w3.org/1999/xlink" x="0px" y="0px"
	 viewBox="-176 377.2 146.7 38.8" style="enable-background:new -176 377.2 146.7 38.8;" xml:space="preserve">
<style type="text/css">
	.st0{fill:#522367;}
</style>
<title>Staysure logo</title>
<path class="st0" d="M-165.2,389.4c-3.8-1.8-5.8-3.2-5.8-6c0-2.2,1.5-4.4,4.9-4.4c3.9,0,5.2,2.8,6,5.5v0.1l1.7-0.2v-0.1
	c-0.2-1.2-0.3-2.2-0.4-3.1c-0.2-1.1-0.3-2-0.4-2.8v-0.1h-0.1c-1.9-0.6-4-0.9-6-1c-5.8,0-9.8,3.2-9.8,7.8c0,4.7,4.5,6.9,7.8,8.5
	c3.3,1.6,5.8,3.1,5.8,6.1s-2,4.8-5.3,4.8c-5,0-7-4.8-7.6-6.9v-0.1l-1.6,0.4v0.1c0.3,2.3,0.7,4.5,1.3,6.7v0h0.1l0.3,0.1
	c0.7,0.3,1.4,0.6,2.1,0.8c1.5,0.4,3,0.7,4.6,0.7c6.2,0,10.6-3.5,10.6-8.3S-161.5,391.1-165.2,389.4"/>
<path class="st0" d="M-144.7,402.6c-0.9,0.4-1.8,0.6-2.7,0.6c-1.2,0-2.6-0.7-2.6-3.9v-10.6h4.7l0,0c0.3-0.2,0.6-0.5,0.6-0.9
	c0.1-0.4-0.1-0.7-0.3-1l0,0h-5.1V381l-0.8-0.2l-3.5,3v3h-2l-1.4,1.4l0.3,0.6h3.1v12c0,3.4,1.7,5.2,4.9,5.2c0.7-0.1,1.3-0.2,1.9-0.6
	l3.5-1.5l-0.5-1.4L-144.7,402.6z"/>
<path class="st0" d="M-135.6,397.1l1.1-0.5c0.9-0.4,1.9-0.8,2.6-1.1v6.4c-0.9,0.8-2.1,1.2-3.3,1.3c-1.7,0-3-1.3-3.1-2.9
	c0-0.1,0-0.1,0-0.2C-138.3,398.5-137.3,397.8-135.6,397.1 M-124.5,402.4l-0.1,0.1c-0.5,0.3-1,0.4-1.6,0.4c-1,0-1.5-0.8-1.5-2.4v-7.7
	c0-2.6-0.6-4.2-2.2-5.4c-1.2-0.8-2.6-1.2-4-1.2l0,0c-2.5,0.6-4.9,1.6-7.1,3c-1,0.6-1.6,1.2-1.6,1.9c0.2,1.1,1.2,2,2.3,2
	c0.7,0.1,1.4-0.4,1.6-1.1c0.2-1,0.6-2,1.3-2.8c0.5-0.5,1.2-0.8,1.9-0.8c2.2,0,3.6,1.7,3.6,4.6v0.7c-1.2,0.8-4.8,2-7.2,2.7
	c-2.6,0.8-3.8,2.2-3.8,4.3c0.2,3.1,2.8,5.5,5.9,5.3c0,0,0,0,0,0c1.2,0,3.1-1.2,4.8-2.3l0.5-0.3c0.2,0.7,0.6,1.3,1.1,1.8
	c0.7,0.5,1.5,0.8,2.4,0.9l0,0l4.3-2.3L-124.5,402.4z"/>
<path class="st0" d="M-97.4,394.1c-1.9-0.7-3.8-1.7-3.8-3.5c0-1.5,1.2-2.7,2.6-2.7c0.1,0,0.1,0,0.2,0c2.6,0,4,2.3,4.7,4.1v0.1
	l1.5-0.4v-0.1c-0.2-1.6-0.5-3.1-1-4.6v-0.1l0,0c-1.4-0.5-2.8-0.8-4.3-0.8c-4.2,0-7.3,2.4-7.3,5.7c0,3.5,3.6,5,5.9,6
	c2.6,1.1,3.6,2.1,3.6,3.6c-0.1,1.6-1.4,2.8-3,2.8c0,0-0.1,0-0.1,0c-2.9,0-4.9-2.8-5.6-5.2v-0.1l-1.5,0.2v0.1c0,1.8,0.3,3.5,0.8,5.2
	l0,0c1.7,1,3.5,1.5,5.5,1.4c3.9,0,7.9-2.1,7.9-6c0-3.1-2.4-4.6-6-6"/>
<path class="st0" d="M-71.4,400.6v-14.2l-0.5,0.1c-0.8,0.1-1.8,0.3-3,0.4c-1.4,0.2-3,0.3-4.3,0.3h-0.1v1.3l1.7,0.3
	c1.4,0.2,1.8,0.4,1.8,2.6v9.9c-1.3,1.1-2.9,1.8-4.6,1.8c-1.8,0-3.8-0.8-3.8-4.5v-5.8c0-2.8,0-4.8,0.1-6.1v-0.2l-0.4,0.1
	c-0.8,0.1-2.1,0.3-3.3,0.4h-0.5c-1.1,0.1-2.2,0.2-3.1,0.3h-0.1v1.2l1.3,0.3c1.1,0.2,1.4,0.4,1.4,2.5v8.4c0,4,2.2,6.4,5.9,6.4
	c1.3,0,2.6-0.4,3.7-1.1c1-0.6,2-1.2,3-1.9l0,0v2.7l0.4,0.3h0.1c0.9-0.3,2.2-0.6,3.4-0.9c1.5-0.3,2.7-0.5,3.7-0.7h0.1v-1.4h-1.3
	C-71.2,403-71.5,402.8-71.4,400.6"/>
<path class="st0" d="M-51.3,388.6c-0.2-1.4-1.5-2.5-2.9-2.3c-1.7,0-3.6,1.5-5.5,4.4v-4.5l-0.2,0.1c-2.2,0.8-4.5,1.4-6.8,1.7h-0.1
	v1.2h0.1c2.4,0.3,2.7,0.4,2.7,3v8.8c0,2.7-0.3,2.9-3,3.1h-0.1v1.4h11.3v-1.3H-56c-3.6-0.3-3.7-0.5-3.7-3.1v-7.8
	c0.9-2,2.2-3.3,3.4-3.3c0.7,0,1.5,0.3,2,0.8c0.4,0.3,0.9,0.4,1.4,0.1C-51.9,390.6-51.3,389.7-51.3,388.6"/>
<path class="st0" d="M-40.6,393c-2.5,0.1-4.9,0.1-7.3,0.1c0.6-3,2.4-5,4.5-5c1,0,2,0.4,2.6,1.1c0.8,0.8,1.2,1.9,1.1,3
	C-39.6,392.7-39.7,392.9-40.6,393 M-36.3,400.7c-1.4,1.3-3.3,2-5.2,2c-3.3,0-6.6-2.4-6.7-7.7c5.3-0.2,11-0.6,11.8-0.7
	c1-0.1,1.2-0.7,1.2-1.5c0-3.5-3.4-6.6-7.2-6.6h-0.1c-2.6,0.1-5.1,1.2-6.9,3.1c-2,2-3.2,4.7-3.2,7.5c-0.1,4.9,3.7,9,8.6,9.1
	c0.2,0,0.4,0,0.6,0c0.7,0,4.4-0.2,7.8-4.2l0.1-0.1l-0.8-1.1L-36.3,400.7z"/>
<path class="st0" d="M-104.5,388.2v-1.4h-8.7v1.4h0.2c1.5,0.2,2.2,0.4,2.4,0.8c0.2,0.4,0.1,0.7-0.1,1.4c-0.9,2.6-2.7,7.1-4,10
	l-4-10.1c-0.3-0.7-0.3-1.1-0.2-1.4c0.1-0.3,0.7-0.5,1.9-0.7h0.1l-0.1-1.4h-10v1.4h0.1c2.4,0.3,2.8,0.8,3.8,3
	c1.2,2.5,3.1,7.2,5.4,13.1c0.3,0.6,0.3,1.3,0.1,1.9c-0.4,0.9-0.8,1.8-1.3,2.6c-1.4,2.5-3,4.8-4.8,7l-0.2,0.2h4.6v-0.1
	c0.7-1.8,1.5-3.6,2.6-6.1c0.8-1.7,1.6-3.7,2.7-6.2l0.5-1.3c2.6-6.1,3.9-9.2,5-11.2C-107.3,388.9-106.9,388.6-104.5,388.2
	L-104.5,388.2z"/>
<path class="st0" d="M-29.8,389.1l-0.3-2.3l-0.7,2.3h-0.5l-0.8-2.3l-0.3,2.3h-0.5l0.4-2.8h0.7l0.7,2.2l0.7-2.2h0.7l0.4,2.8H-29.8z
	 M-33.9,386.7v2.4h-0.5v-2.4h-0.8v-0.4h2.3v0.4H-33.9z"/>
<script  xmlns=""></script>
</svg>
